<?xml version="1.0" encoding="utf-8"?>
<!-- Generator: Adobe Illustrator 23.0.6, SVG Export Plug-In . SVG Version: 6.00 Build 0)  -->
<svg version="1.1" id="Layer_1" xmlns="http://www.w3.org/2000/svg" xmlns:xlink="http://www.w3.org/1999/xlink" x="0px" y="0px"
	 viewBox="0 0 90 25" style="enable-background:new 0 0 90 25;" xml:space="preserve">
<style type="text/css">
	.st0{fill:#300DB1;}
</style>
<g>
	<g>
		<path class="st0" d="M2.1,17.3l1.3-8.1L4,10.4L2.1,9.8l0.2-1l3-0.1l-0.6,2.9l-0.6,1C4.3,11.7,4.6,11,5,10.4c0.4-0.6,0.9-1,1.4-1.4
			C7,8.8,7.5,8.6,8,8.6c0.3,0,0.5,0,0.7,0.1l-0.5,2.7H7.1V9.9l0.2,0.2c-0.3,0-0.6,0-0.9,0.2c-0.3,0.2-0.6,0.4-0.8,0.7
			c-0.3,0.3-0.5,0.7-0.7,1.2c-0.2,0.5-0.3,1-0.4,1.6L4,17.3H2.1z"/>
		<path class="st0" d="M13,8.6c0.6,0,1.2,0.1,1.7,0.4c0.5,0.2,0.9,0.6,1.1,1.1c0.3,0.5,0.4,1.2,0.4,2c0,0.7-0.1,1.3-0.3,2
			c-0.2,0.6-0.5,1.2-0.9,1.7s-0.9,0.9-1.5,1.2s-1.3,0.5-2.1,0.5c-0.6,0-1.2-0.1-1.7-0.4C9.3,16.9,9,16.6,8.7,16
			c-0.3-0.5-0.4-1.2-0.4-2c0-0.7,0.1-1.3,0.3-2c0.2-0.6,0.5-1.2,0.9-1.7c0.4-0.5,0.9-0.9,1.5-1.2C11.5,8.8,12.2,8.6,13,8.6z
			 M12.8,10c-0.5,0-0.8,0.1-1.2,0.4c-0.3,0.3-0.6,0.6-0.8,1s-0.3,0.8-0.4,1.3s-0.1,0.9-0.1,1.3c0,0.7,0.1,1.2,0.4,1.5
			s0.6,0.6,1.2,0.6c0.4,0,0.8-0.1,1.1-0.4c0.3-0.3,0.6-0.6,0.8-1c0.2-0.4,0.4-0.9,0.5-1.3c0.1-0.5,0.1-0.9,0.1-1.3
			c0-0.7-0.1-1.2-0.4-1.5C13.7,10.2,13.3,10,12.8,10z"/>
		<path class="st0" d="M16.9,17.4l1.9-12l0.7,1.2L17.5,6l0.2-1l3.1-0.1l-1.9,12l-0.7-1.2l2,0.6l-0.2,1L16.9,17.4z"/>
		<path class="st0" d="M21.1,17.4l1.9-12l0.7,1.2L21.7,6l0.2-1L25,4.9l-1.9,12l-0.7-1.2l2,0.6l-0.2,1L21.1,17.4z"/>
		<path class="st0" d="M25.5,17.4l1.3-8.2l0.7,1.2l-2-0.6l0.2-1l3.1-0.1l-1.3,8.2l-0.6-1.2l1.9,0.6l-0.2,1L25.5,17.4z M28.1,7.3
			c-0.3,0-0.6-0.1-0.8-0.3C27.1,6.8,27,6.6,27,6.3c0-0.4,0.1-0.7,0.4-0.9c0.2-0.2,0.5-0.4,0.9-0.4c0.3,0,0.6,0.1,0.7,0.3
			c0.2,0.2,0.3,0.4,0.3,0.8c0,0.4-0.1,0.7-0.4,0.9S28.5,7.3,28.1,7.3z"/>
		<path class="st0" d="M35,17.4l0.9-5.5c0.1-0.4,0.1-0.7,0-1c0-0.3-0.1-0.5-0.3-0.6c-0.1-0.2-0.3-0.2-0.6-0.2
			c-0.2,0-0.5,0.1-0.8,0.2c-0.3,0.2-0.5,0.4-0.8,0.7c-0.3,0.3-0.5,0.7-0.7,1.1c-0.2,0.5-0.3,1-0.4,1.6l-0.6,3.5h-1.9l1.3-8.1
			l0.7,1.2l-1.9-0.6l0.2-1l3-0.1l-0.6,2.9l-0.6,1c0.2-0.9,0.6-1.7,1-2.3c0.4-0.6,0.9-1,1.4-1.3s1-0.4,1.5-0.4c0.5,0,0.9,0.1,1.2,0.4
			s0.6,0.6,0.7,1c0.1,0.4,0.2,1,0,1.6l-0.8,4.8l-0.8-0.6l2,0.6l-0.2,1L35,17.4z"/>
		<path class="st0" d="M41.6,21.2c-0.5,0-1-0.1-1.5-0.2c-0.5-0.1-1-0.2-1.5-0.4l0.4-1.4c0.5,0.2,0.9,0.3,1.3,0.4
			c0.4,0.1,0.8,0.1,1.2,0.1c0.5,0,0.9-0.1,1.2-0.2c0.3-0.1,0.6-0.3,0.8-0.6c0.2-0.2,0.4-0.5,0.5-0.8c0.1-0.3,0.2-0.6,0.2-0.9
			l0.4-2.9l0.6-1c-0.2,0.9-0.5,1.6-0.9,2.2s-0.9,1-1.4,1.3c-0.5,0.3-1,0.5-1.5,0.5c-0.4,0-0.8-0.1-1.2-0.3c-0.4-0.2-0.6-0.6-0.8-1
			c-0.2-0.5-0.3-1.1-0.3-1.8c0-0.8,0.1-1.5,0.4-2.2c0.2-0.7,0.6-1.3,1-1.8c0.4-0.5,1-0.9,1.5-1.2c0.6-0.3,1.2-0.4,1.9-0.4
			c0.4,0,0.9,0.1,1.4,0.2c0.5,0.1,0.9,0.4,1.4,0.7l-0.8-0.2l0.4-0.5h1L46,17.3c-0.1,0.7-0.3,1.3-0.6,1.9s-0.6,0.9-1,1.2
			c-0.4,0.3-0.8,0.5-1.3,0.7C42.6,21.2,42.1,21.2,41.6,21.2z M42.2,16c0.2,0,0.5-0.1,0.8-0.2c0.3-0.2,0.5-0.4,0.8-0.7
			c0.2-0.3,0.5-0.7,0.7-1.2c0.2-0.5,0.3-1,0.4-1.6l0.4-2.2l0.3,0.6c-0.3-0.2-0.6-0.4-0.8-0.4c-0.3-0.1-0.5-0.1-0.8-0.1
			c-0.4,0-0.8,0.1-1.2,0.3c-0.3,0.2-0.7,0.5-0.9,0.9c-0.3,0.4-0.5,0.8-0.6,1.3c-0.1,0.5-0.2,1-0.2,1.5c0,0.7,0.1,1.1,0.3,1.4
			C41.6,15.8,41.8,16,42.2,16z"/>
		<path class="st0" d="M55.2,6.1L59.5,6v1.2L58,7.7l0.3-0.5v10.2h-2.7l-4.9-8.9h0.3v7.8l-0.3-0.5l1.5,0.5v1.2H48v-1.2l1.5-0.5
			l-0.3,0.5v-9l0.2,0.4L48,7.3V6.1L51.9,6l4.8,8.7h-0.3V7.2l0.4,0.5l-1.5-0.4V6.1z"/>
		<path class="st0" d="M63.9,17.5c-0.8,0-1.5-0.2-2.1-0.5c-0.6-0.3-1-0.8-1.4-1.5c-0.3-0.6-0.5-1.4-0.5-2.4c0-1,0.2-1.8,0.5-2.5
			s0.8-1.2,1.5-1.6s1.4-0.6,2.2-0.6c0.8,0,1.5,0.2,2,0.5c0.5,0.3,0.9,0.8,1.2,1.4c0.2,0.6,0.4,1.2,0.4,1.9c0,0.2,0,0.4,0,0.5
			c0,0.2,0,0.4-0.1,0.6h-5.9v-1.3h4l-0.3,0.2c0-0.4,0-0.8-0.1-1.1c-0.1-0.3-0.2-0.6-0.5-0.8c-0.2-0.2-0.5-0.3-0.9-0.3
			c-0.4,0-0.7,0.1-1,0.4c-0.3,0.2-0.4,0.6-0.5,1s-0.2,0.9-0.2,1.4c0,0.6,0.1,1.1,0.2,1.5s0.4,0.8,0.7,1.1c0.3,0.3,0.7,0.4,1.3,0.4
			c0.3,0,0.7-0.1,1.2-0.2c0.4-0.1,0.9-0.3,1.3-0.6l0.8,1.2c-0.6,0.4-1.3,0.7-1.9,1C65.1,17.4,64.5,17.5,63.9,17.5z"/>
		<path class="st0" d="M77.9,8.8l3.4-0.1v1.1l-1,0.3l0.3-0.2l-2,7.5h-2.4l-1.7-6.9l0.4,0l-2,6.9h-2.4L68.6,10l0.2,0.2l-1-0.2V8.8
			l3.8-0.1v1.1l-1.2,0.3l0.2-0.2L72,16h-0.4l1.9-7.2l2.3-0.1l1.8,7.4h-0.3l1.5-6.1l0.2,0.2L77.9,10V8.8z"/>
		<path class="st0" d="M83.8,10.9c0,0.3,0.1,0.5,0.3,0.6c0.2,0.1,0.5,0.3,0.8,0.4s0.7,0.2,1.1,0.3c0.4,0.1,0.7,0.3,1.1,0.5
			c0.3,0.2,0.6,0.4,0.8,0.7c0.2,0.3,0.3,0.7,0.3,1.2c0,0.6-0.2,1.2-0.5,1.6c-0.3,0.4-0.8,0.7-1.4,1c-0.6,0.2-1.3,0.3-2,0.3
			c-0.4,0-0.9,0-1.4-0.1s-1-0.2-1.5-0.3l0.1-2.4H83l0.2,1.4L83,15.8c0.2,0.1,0.5,0.1,0.7,0.2c0.3,0,0.5,0.1,0.7,0.1
			c0.3,0,0.5,0,0.8-0.1c0.2-0.1,0.4-0.2,0.6-0.3c0.2-0.1,0.2-0.3,0.2-0.5c0-0.3-0.1-0.5-0.3-0.6c-0.2-0.1-0.5-0.3-0.8-0.4
			c-0.3-0.1-0.7-0.2-1.1-0.3c-0.4-0.1-0.7-0.3-1.1-0.5s-0.6-0.4-0.8-0.8s-0.3-0.7-0.3-1.3c0-0.6,0.2-1.1,0.5-1.5
			c0.3-0.4,0.7-0.7,1.2-0.9c0.5-0.2,1.1-0.3,1.7-0.3c0.4,0,0.9,0,1.4,0.1s1,0.2,1.5,0.3l-0.1,2.2h-1.4l-0.3-1.3l0.3,0.3
			c-0.5-0.1-1-0.2-1.4-0.2c-0.4,0-0.7,0.1-0.9,0.2C83.9,10.4,83.8,10.6,83.8,10.9z"/>
	</g>
</g>
<image style="overflow:visible;" width="1600" height="1200" xlink:href="D:\Downloads\Rolling News Palette (1).png"  transform="matrix(9.464285e-03 0 0 9.464285e-03 6.9286 -20.5)">
</image>
</svg>
