<?xml version="1.0" encoding="utf-8"?>
<!-- Generator: Adobe Illustrator 23.0.6, SVG Export Plug-In . SVG Version: 6.00 Build 0)  -->
<svg version="1.1" id="Layer_1" xmlns="http://www.w3.org/2000/svg" xmlns:xlink="http://www.w3.org/1999/xlink" x="0px" y="0px"
	 viewBox="0 0 90 40" style="enable-background:new 0 0 90 40;" xml:space="preserve">
<style type="text/css">
	.st0{fill:#FFFFFF;}
</style>
<g>
	<g>
		<path class="st0" d="M44.1,18.8l1.3-7.9L46,12l-1.9-0.6l0.2-1l2.9-0.1l-0.6,2.8l-0.6,1c0.2-0.9,0.5-1.6,0.9-2.2
			c0.4-0.6,0.9-1,1.4-1.3s1-0.4,1.5-0.4c0.3,0,0.5,0,0.7,0.1L50.1,13H49v-1.5l0.2,0.2c-0.3,0-0.5,0-0.8,0.2s-0.5,0.4-0.8,0.7
			c-0.2,0.3-0.5,0.7-0.6,1.1c-0.2,0.5-0.3,1-0.4,1.5l-0.5,3.4h-2V18.8z"/>
		<path class="st0" d="M54.6,10.3c0.6,0,1.2,0.1,1.6,0.3c0.5,0.2,0.8,0.6,1.1,1.1s0.4,1.2,0.4,2c0,0.6-0.1,1.3-0.3,1.9
			c-0.2,0.6-0.5,1.2-0.8,1.7c-0.4,0.5-0.9,0.9-1.4,1.2s-1.3,0.4-2,0.4c-0.6,0-1.2-0.1-1.6-0.3c-0.5-0.2-0.8-0.6-1.1-1.1
			s-0.4-1.2-0.4-2c0-0.7,0.1-1.3,0.3-1.9c0.2-0.6,0.5-1.2,0.8-1.7c0.4-0.5,0.9-0.9,1.4-1.2C53.1,10.4,53.8,10.3,54.6,10.3z
			 M54.3,11.6c-0.4,0-0.8,0.1-1.1,0.4c-0.3,0.3-0.6,0.6-0.8,1s-0.3,0.8-0.4,1.3c-0.1,0.5-0.1,0.9-0.1,1.3c0,0.6,0.1,1.1,0.4,1.5
			c0.2,0.4,0.6,0.5,1.1,0.5c0.4,0,0.8-0.1,1.1-0.4s0.6-0.6,0.8-1s0.3-0.8,0.4-1.3c0.1-0.5,0.1-0.9,0.1-1.3c0-0.6-0.1-1.1-0.4-1.5
			C55.2,11.8,54.8,11.6,54.3,11.6z"/>
		<path class="st0" d="M58.3,18.8l1.9-11.7l0.6,1.1l-1.9-0.5l0.2-1l3-0.1l-1.9,11.7l-0.7-1.2l1.9,0.6l-0.2,1L58.3,18.8z"/>
		<path class="st0" d="M62.5,18.8l1.9-11.7L65,8.3l-1.9-0.5l0.2-1l3-0.1l-1.9,11.7l-0.7-1.2l1.9,0.6l-0.2,1H62.5z"/>
		<path class="st0" d="M66.8,18.8l1.3-7.9l0.7,1.2l-1.9-0.6l0.2-1l3-0.1l-1.3,8l-0.6-1.2l1.9,0.6l-0.2,1L66.8,18.8z M69.3,9
			c-0.3,0-0.6-0.1-0.7-0.3c-0.2-0.2-0.3-0.4-0.3-0.8c0-0.4,0.1-0.7,0.4-0.9c0.2-0.2,0.5-0.4,0.9-0.4c0.3,0,0.5,0.1,0.7,0.3
			c0.2,0.2,0.3,0.4,0.3,0.8c0,0.4-0.1,0.7-0.3,0.9C70,8.9,69.7,9,69.3,9z"/>
		<path class="st0" d="M76.1,18.8l0.9-5.3c0.1-0.4,0.1-0.7,0-0.9c0-0.3-0.1-0.5-0.3-0.6c-0.1-0.1-0.3-0.2-0.6-0.2
			c-0.2,0-0.5,0.1-0.8,0.2s-0.5,0.4-0.8,0.7c-0.2,0.3-0.5,0.7-0.7,1.1c-0.2,0.4-0.3,1-0.4,1.6L73,18.8h-1.8l1.3-7.9L73,12l-1.9-0.6
			l0.2-1l2.9-0.1l-0.6,2.8l-0.6,1c0.2-0.9,0.6-1.7,1-2.2c0.4-0.6,0.9-1,1.4-1.3s1-0.4,1.4-0.4c0.5,0,0.9,0.1,1.2,0.3
			c0.3,0.2,0.6,0.6,0.7,1s0.2,0.9,0,1.5L78,17.7l-0.8-0.6l2,0.6l-0.2,1L76.1,18.8z"/>
		<path class="st0" d="M82.4,22.5c-0.5,0-1-0.1-1.5-0.1c-0.5-0.1-1-0.2-1.4-0.4l0.4-1.3c0.4,0.2,0.9,0.3,1.3,0.4s0.8,0.1,1.2,0.1
			c0.5,0,0.9-0.1,1.2-0.2c0.3-0.1,0.6-0.3,0.8-0.6c0.2-0.2,0.3-0.5,0.5-0.8S85,19,85,18.8l0.4-2.8l0.6-1c-0.2,0.9-0.5,1.6-0.9,2.2
			s-0.9,1-1.4,1.3s-1,0.4-1.5,0.4c-0.4,0-0.8-0.1-1.1-0.3c-0.3-0.2-0.6-0.6-0.8-1c-0.2-0.5-0.3-1-0.3-1.8s0.1-1.5,0.4-2.2
			c0.2-0.7,0.6-1.3,1-1.8s0.9-0.9,1.5-1.2s1.2-0.4,1.9-0.4c0.4,0,0.9,0.1,1.3,0.2c0.5,0.1,0.9,0.4,1.4,0.7L86.6,11l0.4-0.5h1
			l-1.3,8.3c-0.1,0.7-0.3,1.3-0.6,1.8c-0.3,0.5-0.6,0.9-1,1.2c-0.4,0.3-0.8,0.5-1.3,0.6C83.4,22.5,82.9,22.5,82.4,22.5z M83,17.4
			c0.2,0,0.5-0.1,0.8-0.2c0.3-0.2,0.5-0.4,0.8-0.7c0.2-0.3,0.5-0.7,0.7-1.1c0.2-0.4,0.3-1,0.4-1.6l0.4-2.2l0.3,0.6
			c-0.3-0.2-0.5-0.3-0.8-0.4c-0.3-0.1-0.5-0.1-0.8-0.1c-0.4,0-0.8,0.1-1.1,0.3c-0.3,0.2-0.6,0.5-0.9,0.9s-0.4,0.8-0.6,1.3
			s-0.2,1-0.2,1.5c0,0.6,0.1,1.1,0.3,1.4C82.4,17.3,82.7,17.4,83,17.4z"/>
		<path class="st0" d="M50.9,21.4l4.1-0.1v1.1L53.6,23l0.3-0.5v9.9h-2.6l-4.7-8.7h0.3v7.6l-0.3-0.5l1.5,0.4v1.1h-4.2v-1.1l1.5-0.4
			l-0.3,0.5v-8.8l0.2,0.4l-1.4-0.4v-1.1l3.8-0.1l4.6,8.5H52v-7.3l0.3,0.5l-1.5-0.4v-1.2H50.9z"/>
		<path class="st0" d="M59.2,32.6c-0.8,0-1.4-0.2-2-0.5s-1-0.8-1.3-1.4s-0.5-1.4-0.5-2.3s0.2-1.7,0.5-2.4c0.3-0.7,0.8-1.2,1.4-1.6
			c0.6-0.4,1.3-0.5,2.2-0.5c0.8,0,1.5,0.2,2,0.5s0.9,0.8,1.1,1.3c0.2,0.6,0.4,1.2,0.4,1.9c0,0.2,0,0.4,0,0.5c0,0.2,0,0.4-0.1,0.6
			h-5.7v-1.3H61l-0.3,0.2c0-0.4,0-0.8-0.1-1.1c-0.1-0.3-0.2-0.6-0.4-0.7c-0.2-0.2-0.5-0.3-0.9-0.3s-0.7,0.1-1,0.4
			c-0.2,0.2-0.4,0.6-0.5,0.9c-0.1,0.4-0.2,0.8-0.2,1.3c0,0.6,0.1,1.1,0.2,1.5c0.1,0.4,0.4,0.8,0.7,1s0.7,0.4,1.2,0.4
			c0.3,0,0.7-0.1,1.1-0.2c0.4-0.1,0.8-0.3,1.3-0.6l0.8,1.2c-0.6,0.4-1.2,0.7-1.9,0.9C60.4,32.5,59.8,32.6,59.2,32.6z"/>
		<path class="st0" d="M72.6,24.1L76,24v1.1l-1,0.3l0.3-0.2l-2,7.3h-2.4l-1.7-6.7h0.4l-1.9,6.7h-2.4l-1.8-7.2l0.2,0.2l-1-0.2v-1.1
			l3.7-0.1v1.1l-1.1,0.3l0.2-0.2l1.3,5.9h-0.4l1.9-7l2.2-0.1l1.7,7.2H72l1.4-5.9l0.2,0.2l-1.1-0.3L72.6,24.1L72.6,24.1z"/>
		<path class="st0" d="M78,26.1c0,0.3,0.1,0.4,0.3,0.6c0.2,0.1,0.5,0.3,0.8,0.4s0.7,0.2,1,0.3c0.4,0.1,0.7,0.3,1,0.4
			s0.6,0.4,0.8,0.7c0.2,0.3,0.3,0.7,0.3,1.2c0,0.6-0.2,1.1-0.5,1.6c-0.3,0.4-0.8,0.7-1.4,0.9s-1.2,0.3-1.9,0.3c-0.4,0-0.9,0-1.3-0.1
			c-0.5-0.1-0.9-0.2-1.4-0.3l0.1-2.4h1.4l0.2,1.4l-0.2-0.3c0.2,0.1,0.4,0.1,0.7,0.1c0.3,0,0.5,0.1,0.7,0.1c0.3,0,0.5,0,0.7-0.1
			s0.4-0.2,0.6-0.3c0.2-0.1,0.2-0.3,0.2-0.5c0-0.3-0.1-0.5-0.3-0.6c-0.2-0.1-0.5-0.3-0.8-0.4s-0.7-0.2-1-0.3c-0.4-0.1-0.7-0.3-1-0.4
			c-0.3-0.2-0.6-0.4-0.8-0.7c-0.2-0.3-0.3-0.7-0.3-1.2c0-0.6,0.2-1.1,0.5-1.5s0.7-0.7,1.2-0.8c0.5-0.2,1.1-0.3,1.7-0.3
			c0.4,0,0.9,0,1.4,0.1s1,0.2,1.5,0.3l-0.1,2.1h-1.4l-0.3-1.2l0.3,0.3c-0.5-0.1-0.9-0.2-1.3-0.2s-0.7,0.1-0.9,0.2
			C78.1,25.7,78,25.9,78,26.1z"/>
	</g>
	<g>
		<polygon class="st0" points="28.9,14.7 26.4,15.1 28.9,19.6 		"/>
		<path class="st0" d="M35.8,13.6l-3.9,0.6v10.6h-4.2l-5-9.1L20.4,16v6.3l1.9,0.6v1.8h-6.8v-1.8l1.9-0.6v-5.9l-7.6,1.2
			C9.7,18,9.6,18.5,9.5,19l-0.9,5.7h-3l1-6.5L2,19c1.5,9.3,10.3,15.7,19.6,14.2S37.3,22.9,35.8,13.6z"/>
		<path class="st0" d="M10.1,16.6c0.3-0.7,0.6-1.4,1.1-1.9c0.4-0.5,0.8-0.9,1.3-1.2c0.3-0.2,0.7-0.3,1-0.3v2.1h1.8L16,11
			c-0.3-0.1-0.7-0.2-1.1-0.2c-0.8,0-1.6,0.2-2.5,0.7c-0.8,0.5-1.6,1.2-2.3,2.2C10,13.8,9.9,14,9.8,14.2l0.7-3.2l-4.8,0.2l-0.3,1.6
			l1.8,0.5l-0.8,4.9l3.2-0.5C9.9,17.3,10,16.9,10.1,16.6z"/>
		<polygon class="st0" points="31.9,9.2 33.8,8.5 33.8,6.7 27,6.8 27,8.7 28.9,9.2 28.9,14.7 31.9,14.2 		"/>
		<polygon class="st0" points="20.4,11.5 22.7,15.7 26.4,15.1 21.8,6.7 15.5,6.8 15.5,8.7 17.4,9.2 17.4,16.5 20.4,16 		"/>
	</g>
</g>
</svg>
